<svg xmlns="http://www.w3.org/2000/svg" viewBox="0 0 960 440" fill="none">
  <defs>
    <linearGradient id="bg" x1="0" y1="0" x2="960" y2="440" gradientUnits="userSpaceOnUse">
      <stop offset="0%" stop-color="#0f172a"/>
      <stop offset="100%" stop-color="#1e293b"/>
    </linearGradient>
    <linearGradient id="blue" x1="0" y1="0" x2="1" y2="1">
      <stop offset="0%" stop-color="#3b82f6"/>
      <stop offset="100%" stop-color="#60a5fa"/>
    </linearGradient>
    <linearGradient id="purple" x1="0" y1="0" x2="1" y2="1">
      <stop offset="0%" stop-color="#8b5cf6"/>
      <stop offset="100%" stop-color="#a78bfa"/>
    </linearGradient>
    <linearGradient id="green" x1="0" y1="0" x2="1" y2="1">
      <stop offset="0%" stop-color="#10b981"/>
      <stop offset="100%" stop-color="#34d399"/>
    </linearGradient>
  </defs>

  <rect width="960" height="440" rx="16" fill="url(#bg)"/>

  <!-- Title -->
  <text x="480" y="48" text-anchor="middle" fill="#e2e8f0" font-family="system-ui,sans-serif" font-size="24" font-weight="700">412 Modules as MCP Tools</text>
  <text x="480" y="74" text-anchor="middle" fill="#64748b" font-family="system-ui,sans-serif" font-size="14">Connect flyto-core to any MCP-compatible AI client</text>

  <!-- Left: AI Clients -->
  <rect x="60" y="110" width="220" height="260" rx="12" fill="#1e293b" stroke="#334155" stroke-width="1.5"/>
  <text x="170" y="140" text-anchor="middle" fill="#94a3b8" font-family="system-ui,sans-serif" font-size="13" font-weight="600">AI CLIENTS</text>

  <rect x="85" y="160" width="170" height="40" rx="8" fill="#334155"/>
  <text x="170" y="185" text-anchor="middle" fill="#e2e8f0" font-family="system-ui,sans-serif" font-size="14">Claude Desktop</text>

  <rect x="85" y="215" width="170" height="40" rx="8" fill="#334155"/>
  <text x="170" y="240" text-anchor="middle" fill="#e2e8f0" font-family="system-ui,sans-serif" font-size="14">Cursor</text>

  <rect x="85" y="270" width="170" height="40" rx="8" fill="#334155"/>
  <text x="170" y="295" text-anchor="middle" fill="#e2e8f0" font-family="system-ui,sans-serif" font-size="14">Windsurf</text>

  <rect x="85" y="325" width="170" height="40" rx="8" fill="#334155"/>
  <text x="170" y="350" text-anchor="middle" fill="#e2e8f0" font-family="system-ui,sans-serif" font-size="14">Any MCP Client</text>

  <!-- Center: MCP Protocol -->
  <line x1="280" y1="180" x2="380" y2="220" stroke="url(#purple)" stroke-width="2"/>
  <line x1="280" y1="235" x2="380" y2="235" stroke="url(#purple)" stroke-width="2"/>
  <line x1="280" y1="290" x2="380" y2="250" stroke="url(#purple)" stroke-width="2"/>
  <line x1="280" y1="345" x2="380" y2="260" stroke="url(#purple)" stroke-width="2"/>

  <rect x="330" y="195" width="50" height="20" rx="4" fill="#1e293b"/>
  <text x="355" y="209" text-anchor="middle" fill="#a78bfa" font-family="monospace" font-size="9">STDIO</text>
  <rect x="330" y="248" width="50" height="20" rx="4" fill="#1e293b"/>
  <text x="355" y="262" text-anchor="middle" fill="#a78bfa" font-family="monospace" font-size="9">HTTP</text>

  <!-- Center: flyto-core MCP Server -->
  <rect x="380" y="140" width="200" height="160" rx="14" fill="#1e293b" stroke="url(#blue)" stroke-width="2"/>
  <text x="480" y="175" text-anchor="middle" fill="url(#blue)" font-family="system-ui,sans-serif" font-size="16" font-weight="700">flyto-core</text>
  <text x="480" y="198" text-anchor="middle" fill="#64748b" font-family="system-ui,sans-serif" font-size="12">MCP Server</text>

  <line x1="410" y1="215" x2="550" y2="215" stroke="#334155" stroke-width="1"/>

  <text x="480" y="240" text-anchor="middle" fill="#94a3b8" font-family="system-ui,sans-serif" font-size="12">412+ tools exposed</text>
  <text x="480" y="260" text-anchor="middle" fill="#94a3b8" font-family="system-ui,sans-serif" font-size="12">Schema-validated</text>
  <text x="480" y="280" text-anchor="middle" fill="#94a3b8" font-family="system-ui,sans-serif" font-size="12">Full trace on every call</text>

  <!-- Right: Module categories -->
  <line x1="580" y1="200" x2="680" y2="145" stroke="url(#green)" stroke-width="1.5"/>
  <line x1="580" y1="220" x2="680" y2="200" stroke="url(#green)" stroke-width="1.5"/>
  <line x1="580" y1="240" x2="680" y2="255" stroke="url(#green)" stroke-width="1.5"/>
  <line x1="580" y1="260" x2="680" y2="310" stroke="url(#green)" stroke-width="1.5"/>
  <line x1="580" y1="270" x2="680" y2="365" stroke="url(#green)" stroke-width="1.5"/>

  <rect x="680" y="120" width="220" height="36" rx="8" fill="#334155"/>
  <text x="710" y="143" fill="#34d399" font-family="monospace" font-size="12">browser.*</text>
  <text x="870" y="143" text-anchor="end" fill="#64748b" font-family="system-ui,sans-serif" font-size="11">39 modules</text>

  <rect x="680" y="175" width="220" height="36" rx="8" fill="#334155"/>
  <text x="710" y="198" fill="#34d399" font-family="monospace" font-size="12">data.*</text>
  <text x="870" y="198" text-anchor="end" fill="#64748b" font-family="system-ui,sans-serif" font-size="11">13 modules</text>

  <rect x="680" y="230" width="220" height="36" rx="8" fill="#334155"/>
  <text x="710" y="253" fill="#34d399" font-family="monospace" font-size="12">cloud.*</text>
  <text x="870" y="253" text-anchor="end" fill="#64748b" font-family="system-ui,sans-serif" font-size="11">14 modules</text>

  <rect x="680" y="285" width="220" height="36" rx="8" fill="#334155"/>
  <text x="710" y="308" fill="#34d399" font-family="monospace" font-size="12">crypto.*</text>
  <text x="870" y="308" text-anchor="end" fill="#64748b" font-family="system-ui,sans-serif" font-size="11">9 modules</text>

  <rect x="680" y="340" width="220" height="36" rx="8" fill="#334155"/>
  <text x="710" y="363" fill="#34d399" font-family="monospace" font-size="12">+ 50 more categories</text>

  <!-- Footer -->
  <text x="480" y="425" text-anchor="middle" fill="#475569" font-family="system-ui,sans-serif" font-size="13">pip install flyto-core — one command, 412 MCP tools</text>
</svg>
