<svg xmlns="http://www.w3.org/2000/svg" viewBox="0 0 960 300" fill="none">
  <defs>
    <linearGradient id="bg" x1="0" y1="0" x2="960" y2="300" gradientUnits="userSpaceOnUse">
      <stop offset="0%" stop-color="#0f172a"/>
      <stop offset="100%" stop-color="#1e293b"/>
    </linearGradient>
    <linearGradient id="purple" x1="0" y1="0" x2="1" y2="1">
      <stop offset="0%" stop-color="#7c3aed"/>
      <stop offset="100%" stop-color="#a78bfa"/>
    </linearGradient>
    <linearGradient id="green" x1="0" y1="0" x2="1" y2="1">
      <stop offset="0%" stop-color="#10b981"/>
      <stop offset="100%" stop-color="#34d399"/>
    </linearGradient>
  </defs>
  <rect width="960" height="300" rx="12" fill="url(#bg)"/>

  <!-- Small team (3 people) -->
  <text x="240" y="40" text-anchor="middle" fill="#e2e8f0" font-family="system-ui,sans-serif" font-size="14" font-weight="700">Small Team</text>

  <!-- Person 1 -->
  <circle cx="160" cy="80" r="18" fill="none" stroke="#a78bfa" stroke-width="2"/>
  <line x1="160" y1="98" x2="160" y2="140" stroke="#a78bfa" stroke-width="2"/>
  <line x1="142" y1="115" x2="178" y2="115" stroke="#a78bfa" stroke-width="2"/>
  <line x1="160" y1="140" x2="145" y2="170" stroke="#a78bfa" stroke-width="2"/>
  <line x1="160" y1="140" x2="175" y2="170" stroke="#a78bfa" stroke-width="2"/>

  <!-- Person 2 -->
  <circle cx="240" cy="80" r="18" fill="none" stroke="#a78bfa" stroke-width="2"/>
  <line x1="240" y1="98" x2="240" y2="140" stroke="#a78bfa" stroke-width="2"/>
  <line x1="222" y1="115" x2="258" y2="115" stroke="#a78bfa" stroke-width="2"/>
  <line x1="240" y1="140" x2="225" y2="170" stroke="#a78bfa" stroke-width="2"/>
  <line x1="240" y1="140" x2="255" y2="170" stroke="#a78bfa" stroke-width="2"/>

  <!-- Person 3 -->
  <circle cx="320" cy="80" r="18" fill="none" stroke="#a78bfa" stroke-width="2"/>
  <line x1="320" y1="98" x2="320" y2="140" stroke="#a78bfa" stroke-width="2"/>
  <line x1="302" y1="115" x2="338" y2="115" stroke="#a78bfa" stroke-width="2"/>
  <line x1="320" y1="140" x2="305" y2="170" stroke="#a78bfa" stroke-width="2"/>
  <line x1="320" y1="140" x2="335" y2="170" stroke="#a78bfa" stroke-width="2"/>

  <!-- Plus sign -->
  <text x="420" y="130" text-anchor="middle" fill="#475569" font-family="system-ui,sans-serif" font-size="40" font-weight="300">+</text>

  <!-- Automation gear -->
  <g transform="translate(560, 120)">
    <!-- Outer gear -->
    <circle cx="0" cy="0" r="50" fill="none" stroke="#7c3aed" stroke-width="2.5"/>
    <circle cx="0" cy="0" r="20" fill="#7c3aed" opacity="0.2" stroke="#7c3aed" stroke-width="2"/>
    <!-- Gear teeth -->
    <rect x="-6" y="-58" width="12" height="16" rx="2" fill="#7c3aed"/>
    <rect x="-6" y="42" width="12" height="16" rx="2" fill="#7c3aed"/>
    <rect x="-58" y="-6" width="16" height="12" rx="2" fill="#7c3aed"/>
    <rect x="42" y="-6" width="16" height="12" rx="2" fill="#7c3aed"/>
    <!-- Diagonal teeth -->
    <rect x="30" y="-44" width="12" height="16" rx="2" fill="#7c3aed" transform="rotate(45 36 -36)"/>
    <rect x="-42" y="28" width="12" height="16" rx="2" fill="#7c3aed" transform="rotate(45 -36 36)"/>
    <rect x="-42" y="-44" width="12" height="16" rx="2" fill="#7c3aed" transform="rotate(-45 -36 -36)"/>
    <rect x="30" y="28" width="12" height="16" rx="2" fill="#7c3aed" transform="rotate(-45 36 36)"/>
    <!-- Center text -->
    <text x="0" y="5" text-anchor="middle" fill="#a78bfa" font-family="system-ui,sans-serif" font-size="14" font-weight="700">F2</text>
  </g>

  <text x="560" y="200" text-anchor="middle" fill="#e2e8f0" font-family="system-ui,sans-serif" font-size="14" font-weight="700">Simple Automation</text>

  <!-- Equals -->
  <text x="680" y="130" text-anchor="middle" fill="#475569" font-family="system-ui,sans-serif" font-size="40" font-weight="300">=</text>

  <!-- Result -->
  <rect x="730" y="60" width="180" height="150" rx="12" fill="#1e293b" stroke="#10b981" stroke-width="2"/>
  <text x="820" y="100" text-anchor="middle" fill="#10b981" font-family="system-ui,sans-serif" font-size="30" font-weight="700">10x</text>
  <text x="820" y="125" text-anchor="middle" fill="#e2e8f0" font-family="system-ui,sans-serif" font-size="13" font-weight="600">Faster</text>
  <text x="820" y="155" text-anchor="middle" fill="#10b981" font-family="system-ui,sans-serif" font-size="16" font-weight="700">$0</text>
  <text x="820" y="175" text-anchor="middle" fill="#94a3b8" font-family="system-ui,sans-serif" font-size="11">No licensing fees</text>
  <text x="820" y="195" text-anchor="middle" fill="#10b981" font-family="system-ui,sans-serif" font-size="12">412+ modules</text>

  <!-- Labels below team -->
  <text x="240" y="200" text-anchor="middle" fill="#94a3b8" font-family="system-ui,sans-serif" font-size="11">No IT team required</text>

  <!-- Footer -->
  <text x="480" y="270" text-anchor="middle" fill="#475569" font-family="system-ui,sans-serif" font-size="12">flyto2.com</text>
</svg>